<svg xmlns="http://www.w3.org/2000/svg" viewBox="0 0 120 120" role="img" aria-label="SUN identity icon">
  <defs>
    <linearGradient id="sunFace" x1="34" y1="28" x2="86" y2="92" gradientUnits="userSpaceOnUse">
      <stop stop-color="#FFE680"/>
      <stop offset="1" stop-color="#FFD60A"/>
    </linearGradient>
    <filter id="softShadow" x="-20%" y="-20%" width="140%" height="140%">
      <feDropShadow dx="0" dy="8" stdDeviation="8" flood-color="#000000" flood-opacity=".12"/>
    </filter>
  </defs>

  <rect x="14" y="14" width="92" height="92" rx="24" fill="#F5F5F7"/>
  <path d="M60 19v10M60 91v10M19 60h10M91 60h10M31 31l7 7M82 82l7 7M89 31l-7 7M38 82l-7 7"
        stroke="#FFD60A" stroke-width="5" stroke-linecap="round"/>

  <circle cx="60" cy="60" r="31" fill="url(#sunFace)" filter="url(#softShadow)"/>
  <path d="M42 49c5-7 12-10 21-10 7 0 13 3 17 8" fill="none" stroke="#1D1D1F" stroke-width="5" stroke-linecap="round"/>
  <rect x="39" y="56" width="42" height="24" rx="9" fill="#FFFFFF" opacity=".94"/>
  <text x="60" y="72" text-anchor="middle" fill="#1D1D1F"
        font-family="-apple-system, BlinkMacSystemFont, 'SF Pro Display', Arial, sans-serif"
        font-size="13" font-weight="800" letter-spacing="1">SUN</text>
  <circle cx="80" cy="43" r="8" fill="#FFFFFF"/>
  <path d="M76 43h8M80 39v8" stroke="#1D1D1F" stroke-width="3" stroke-linecap="round"/>
</svg>
